<svg width="1600" height="1200" xmlns="http://www.w3.org/2000/svg">
  <defs>
    <style>
      .title { font-family: Arial, sans-serif; font-size: 20px; font-weight: bold; fill: #2c3e50; }
      .phase-title { font-family: Arial, sans-serif; font-size: 16px; font-weight: bold; fill: #ffffff; }
      .stage-title { font-family: Arial, sans-serif; font-size: 11px; font-weight: bold; fill: #2c3e50; }
      .stage-text { font-family: Arial, sans-serif; font-size: 9px; fill: #34495e; }
      .small-text { font-family: Arial, sans-serif; font-size: 8px; fill: #7f8c8d; }
      .phase1-box { fill: #3498db; stroke: #2980b9; stroke-width: 2; }
      .phase2-box { fill: #e74c3c; stroke: #c0392b; stroke-width: 2; }
      .phase3-box { fill: #f39c12; stroke: #e67e22; stroke-width: 2; }
      .phase4-box { fill: #9b59b6; stroke: #8e44ad; stroke-width: 2; }
      .phase5-box { fill: #2ecc71; stroke: #27ae60; stroke-width: 2; }
      .stage-box { fill: #ecf0f1; stroke: #bdc3c7; stroke-width: 1; }
      .arrow { stroke: #34495e; stroke-width: 2; fill: none; marker-end: url(#arrowhead); }
      .dependency { stroke: #e67e22; stroke-width: 1; fill: none; marker-end: url(#arrowhead); stroke-dasharray: 3,3; }
    </style>
    <marker id="arrowhead" markerWidth="8" markerHeight="6" refX="7" refY="3" orient="auto">
      <polygon points="0 0, 8 3, 0 6" fill="#34495e" />
    </marker>
  </defs>
  
  <!-- Title -->
  <text x="800" y="30" text-anchor="middle" class="title">Development Phases &amp; Stages (52 Total Stages)</text>
  
  <!-- Phase 1: Foundation & Infrastructure (Stages 1-12) -->
  <rect x="50" y="60" width="1500" height="200" rx="10" class="phase1-box" opacity="0.2"/>
  <rect x="60" y="70" width="300" height="30" rx="5" class="phase1-box"/>
  <text x="210" y="90" text-anchor="middle" class="phase-title">PHASE 1: Foundation &amp; Infrastructure (Stages 1-12)</text>
  
  <!-- Stage 1-4 -->
  <rect x="70" y="110" width="180" height="60" rx="3" class="stage-box"/>
  <text x="160" y="125" text-anchor="middle" class="stage-title">Stage 1: Project Setup</text>
  <text x="80" y="140" class="stage-text">• Visual Studio 2022 setup</text>
  <text x="80" y="150" class="stage-text">• C++ compiler config</text>
  <text x="80" y="160" class="stage-text">• Git repository init</text>
  
  <rect x="270" y="110" width="180" height="60" rx="3" class="stage-box"/>
  <text x="360" y="125" text-anchor="middle" class="stage-title">Stage 2: Network Protocol</text>
  <text x="280" y="140" class="stage-text">• Custom binary protocol</text>
  <text x="280" y="150" class="stage-text">• Message headers design</text>
  <text x="280" y="160" class="stage-text">• Serialization functions</text>
  
  <rect x="470" y="110" width="180" height="60" rx="3" class="stage-box"/>
  <text x="560" y="125" text-anchor="middle" class="stage-title">Stage 3: DDNS Integration</text>
  <text x="480" y="140" class="stage-text">• NO-IP, DuckDNS research</text>
  <text x="480" y="150" class="stage-text">• DDNS client implementation</text>
  <text x="480" y="160" class="stage-text">• Fallback mechanisms</text>
  
  <rect x="670" y="110" width="180" height="60" rx="3" class="stage-box"/>
  <text x="760" y="125" text-anchor="middle" class="stage-title">Stage 4: Server Socket</text>
  <text x="680" y="140" class="stage-text">• Async TCP server</text>
  <text x="680" y="150" class="stage-text">• Connection pool mgmt</text>
  <text x="680" y="160" class="stage-text">• Session tracking</text>
  
  <!-- Stage 5-8 -->
  <rect x="870" y="110" width="180" height="60" rx="3" class="stage-box"/>
  <text x="960" y="125" text-anchor="middle" class="stage-title">Stage 5: Client Socket</text>
  <text x="880" y="140" class="stage-text">• Winsock2 TCP client</text>
  <text x="880" y="150" class="stage-text">• Retry logic</text>
  <text x="880" y="160" class="stage-text">• Connection state mgmt</text>
  
  <rect x="1070" y="110" width="180" height="60" rx="3" class="stage-box"/>
  <text x="1160" y="125" text-anchor="middle" class="stage-title">Stage 6: Encryption</text>
  <text x="1080" y="140" class="stage-text">• AES-256 implementation</text>
  <text x="1080" y="150" class="stage-text">• Diffie-Hellman key exchange</text>
  <text x="1080" y="160" class="stage-text">• HMAC authentication</text>
  
  <rect x="1270" y="110" width="180" height="60" rx="3" class="stage-box"/>
  <text x="1360" y="125" text-anchor="middle" class="stage-title">Stage 7-8: Framework</text>
  <text x="1280" y="140" class="stage-text">• Exception handling</text>
  <text x="1280" y="150" class="stage-text">• Command framework</text>
  <text x="1280" y="160" class="stage-text">• Logging system</text>
  
  <!-- Stage 9-12 -->
  <rect x="70" y="190" width="180" height="60" rx="3" class="stage-box"/>
  <text x="160" y="205" text-anchor="middle" class="stage-title">Stage 9: Client ID</text>
  <text x="80" y="220" class="stage-text">• Unique ID generation</text>
  <text x="80" y="230" class="stage-text">• Hardware fingerprinting</text>
  <text x="80" y="240" class="stage-text">• Registration process</text>
  
  <rect x="270" y="190" width="180" height="60" rx="3" class="stage-box"/>
  <text x="360" y="205" text-anchor="middle" class="stage-title">Stage 10: Persistence</text>
  <text x="280" y="220" class="stage-text">• Auto-reconnection</text>
  <text x="280" y="230" class="stage-text">• Health monitoring</text>
  <text x="280" y="240" class="stage-text">• Recovery mechanisms</text>
  
  <rect x="470" y="190" width="180" height="60" rx="3" class="stage-box"/>
  <text x="560" y="205" text-anchor="middle" class="stage-title">Stage 11: Multi-Client</text>
  <text x="480" y="220" class="stage-text">• Concurrent handling</text>
  <text x="480" y="230" class="stage-text">• Client list management</text>
  <text x="480" y="240" class="stage-text">• Load balancing</text>
  
  <rect x="670" y="190" width="180" height="60" rx="3" class="stage-box"/>
  <text x="760" y="205" text-anchor="middle" class="stage-title">Stage 12: Server UI</text>
  <text x="680" y="220" class="stage-text">• WPF main window</text>
  <text x="680" y="230" class="stage-text">• Client list view</text>
  <text x="680" y="240" class="stage-text">• Navigation structure</text>
  
  <!-- Phase 2: Core Remote Access Features (Stages 13-25) -->
  <rect x="50" y="280" width="1500" height="200" rx="10" class="phase2-box" opacity="0.2"/>
  <rect x="60" y="290" width="350" height="30" rx="5" class="phase2-box"/>
  <text x="235" y="310" text-anchor="middle" class="phase-title">PHASE 2: Core Remote Access Features (Stages 13-25)</text>
  
  <!-- Stage 13-16 -->
  <rect x="70" y="330" width="180" height="60" rx="3" class="stage-box"/>
  <text x="160" y="345" text-anchor="middle" class="stage-title">Stage 13: Remote Shell</text>
  <text x="80" y="360" class="stage-text">• CreateProcess API</text>
  <text x="80" y="370" class="stage-text">• Output capture</text>
  <text x="80" y="380" class="stage-text">• Interactive sessions</text>
  
  <rect x="270" y="330" width="180" height="60" rx="3" class="stage-box"/>
  <text x="360" y="345" text-anchor="middle" class="stage-title">Stage 14: File System</text>
  <text x="280" y="360" class="stage-text">• File operations</text>
  <text x="280" y="370" class="stage-text">• Upload/download</text>
  <text x="280" y="380" class="stage-text">• Progress tracking</text>
  
  <rect x="470" y="330" width="180" height="60" rx="3" class="stage-box"/>
  <text x="560" y="345" text-anchor="middle" class="stage-title">Stage 15: Screen Capture</text>
  <text x="480" y="360" class="stage-text">• GDI+ screenshots</text>
  <text x="480" y="370" class="stage-text">• Image compression</text>
  <text x="480" y="380" class="stage-text">• Data transfer</text>
  
  <rect x="670" y="330" width="180" height="60" rx="3" class="stage-box"/>
  <text x="760" y="345" text-anchor="middle" class="stage-title">Stage 16: Video Stream</text>
  <text x="680" y="360" class="stage-text">• FFmpeg integration</text>
  <text x="680" y="370" class="stage-text">• H.264/VP8 encoding</text>
  <text x="680" y="380" class="stage-text">• Frame synchronization</text>
  
  <!-- Stage 17-20 -->
  <rect x="870" y="330" width="180" height="60" rx="3" class="stage-box"/>
  <text x="960" y="345" text-anchor="middle" class="stage-title">Stage 17: Real-time Stream</text>
  <text x="880" y="360" class="stage-text">• Continuous capture</text>
  <text x="880" y="370" class="stage-text">• Adaptive quality</text>
  <text x="880" y="380" class="stage-text">• Buffer management</text>
  
  <rect x="1070" y="330" width="180" height="60" rx="3" class="stage-box"/>
  <text x="1160" y="345" text-anchor="middle" class="stage-title">Stage 18: Input Injection</text>
  <text x="1080" y="360" class="stage-text">• SendInput API</text>
  <text x="1080" y="370" class="stage-text">• Mouse simulation</text>
  <text x="1080" y="380" class="stage-text">• Special keys handling</text>
  
  <rect x="1270" y="330" width="180" height="60" rx="3" class="stage-box"/>
  <text x="1360" y="345" text-anchor="middle" class="stage-title">Stage 19-20: Sync</text>
  <text x="1280" y="360" class="stage-text">• Input synchronization</text>
  <text x="1280" y="370" class="stage-text">• System information</text>
  <text x="1280" y="380" class="stage-text">• Process management</text>
  
  <!-- Stage 21-25 -->
  <rect x="70" y="410" width="180" height="60" rx="3" class="stage-box"/>
  <text x="160" y="425" text-anchor="middle" class="stage-title">Stage 21-22: Registry</text>
  <text x="80" y="440" class="stage-text">• Registry operations</text>
  <text x="80" y="450" class="stage-text">• Service management</text>
  <text x="80" y="460" class="stage-text">• Monitoring</text>
  
  <rect x="270" y="410" width="180" height="60" rx="3" class="stage-box"/>
  <text x="360" y="425" text-anchor="middle" class="stage-title">Stage 23-24: Network</text>
  <text x="280" y="440" class="stage-text">• Network discovery</text>
  <text x="280" y="450" class="stage-text">• Port scanning</text>
  <text x="280" y="460" class="stage-text">• Share enumeration</text>
  
  <rect x="470" y="410" width="180" height="60" rx="3" class="stage-box"/>
  <text x="560" y="425" text-anchor="middle" class="stage-title">Stage 25: Keylogger</text>
  <text x="480" y="440" class="stage-text">• Low-level hooks</text>
  <text x="480" y="450" class="stage-text">• Keystroke capture</text>
  <text x="480" y="460" class="stage-text">• Context logging</text>
  
  <!-- Phase 3: Advanced Stealth & Persistence (Stages 26-35) -->
  <rect x="50" y="500" width="1500" height="180" rx="10" class="phase3-box" opacity="0.2"/>
  <rect x="60" y="510" width="400" height="30" rx="5" class="phase3-box"/>
  <text x="260" y="530" text-anchor="middle" class="phase-title">PHASE 3: Advanced Stealth &amp; Persistence (Stages 26-35)</text>
  
  <!-- Stage 26-30 -->
  <rect x="70" y="550" width="140" height="60" rx="3" class="stage-box"/>
  <text x="140" y="565" text-anchor="middle" class="stage-title">Stage 26-27</text>
  <text x="80" y="580" class="stage-text">• Code obfuscation</text>
  <text x="80" y="590" class="stage-text">• Anti-analysis</text>
  <text x="80" y="600" class="stage-text">• VM detection</text>
  
  <rect x="230" y="550" width="140" height="60" rx="3" class="stage-box"/>
  <text x="300" y="565" text-anchor="middle" class="stage-title">Stage 28-29</text>
  <text x="240" y="580" class="stage-text">• Polymorphic engine</text>
  <text x="240" y="590" class="stage-text">• Process hollowing</text>
  <text x="240" y="600" class="stage-text">• Code injection</text>
  
  <rect x="390" y="550" width="140" height="60" rx="3" class="stage-box"/>
  <text x="460" y="565" text-anchor="middle" class="stage-title">Stage 30-31</text>
  <text x="400" y="580" class="stage-text">• Registry persistence</text>
  <text x="400" y="590" class="stage-text">• Scheduled tasks</text>
  <text x="400" y="600" class="stage-text">• COM hijacking</text>
  
  <rect x="550" y="550" width="140" height="60" rx="3" class="stage-box"/>
  <text x="620" y="565" text-anchor="middle" class="stage-title">Stage 32-33</text>
  <text x="560" y="580" class="stage-text">• Service persistence</text>
  <text x="560" y="590" class="stage-text">• File system hiding</text>
  <text x="560" y="600" class="stage-text">• NTFS streams</text>
  
  <rect x="710" y="550" width="140" height="60" rx="3" class="stage-box"/>
  <text x="780" y="565" text-anchor="middle" class="stage-title">Stage 34-35</text>
  <text x="720" y="580" class="stage-text">• Process protection</text>
  <text x="720" y="590" class="stage-text">• Watchdog impl</text>
  <text x="720" y="600" class="stage-text">• Auto-restart</text>
  
  <!-- Phase 4: Advanced Features & Monitoring (Stages 36-45) -->
  <rect x="50" y="700" width="1500" height="180" rx="10" class="phase4-box" opacity="0.2"/>
  <rect x="60" y="710" width="400" height="30" rx="5" class="phase4-box"/>
  <text x="260" y="730" text-anchor="middle" class="phase-title">PHASE 4: Advanced Features &amp; Monitoring (Stages 36-45)</text>
  
  <!-- Stage 36-40 -->
  <rect x="70" y="750" width="140" height="60" rx="3" class="stage-box"/>
  <text x="140" y="765" text-anchor="middle" class="stage-title">Stage 36-37</text>
  <text x="80" y="780" class="stage-text">• Advanced keylogger</text>
  <text x="80" y="790" class="stage-text">• Browser monitoring</text>
  <text x="80" y="800" class="stage-text">• Clipboard capture</text>
  
  <rect x="230" y="750" width="140" height="60" rx="3" class="stage-box"/>
  <text x="300" y="765" text-anchor="middle" class="stage-title">Stage 38-39</text>
  <text x="240" y="780" class="stage-text">• File system monitor</text>
  <text x="240" y="790" class="stage-text">• App monitoring</text>
  <text x="240" y="800" class="stage-text">• Usage statistics</text>
  
  <rect x="390" y="750" width="140" height="60" rx="3" class="stage-box"/>
  <text x="460" y="765" text-anchor="middle" class="stage-title">Stage 40-41</text>
  <text x="400" y="780" class="stage-text">• Network traffic</text>
  <text x="400" y="790" class="stage-text">• Audio capture</text>
  <text x="400" y="800" class="stage-text">• Voice detection</text>
  
  <rect x="550" y="750" width="140" height="60" rx="3" class="stage-box"/>
  <text x="620" y="765" text-anchor="middle" class="stage-title">Stage 42-43</text>
  <text x="560" y="780" class="stage-text">• Webcam capture</text>
  <text x="560" y="790" class="stage-text">• Data exfiltration</text>
  <text x="560" y="800" class="stage-text">• Motion detection</text>
  
  <rect x="710" y="750" width="140" height="60" rx="3" class="stage-box"/>
  <text x="780" y="765" text-anchor="middle" class="stage-title">Stage 44-45</text>
  <text x="720" y="780" class="stage-text">• Lateral movement</text>
  <text x="720" y="790" class="stage-text">• Self-update</text>
  <text x="720" y="800" class="stage-text">• Version mgmt</text>
  
  <!-- Phase 5: Network Propagation & Scaling (Stages 46-52) -->
  <rect x="50" y="900" width="1500" height="180" rx="10" class="phase5-box" opacity="0.2"/>
  <rect x="60" y="910" width="400" height="30" rx="5" class="phase5-box"/>
  <text x="260" y="930" text-anchor="middle" class="phase-title">PHASE 5: Network Propagation &amp; Scaling (Stages 46-52)</text>
  
  <!-- Stage 46-52 -->
  <rect x="70" y="950" width="140" height="60" rx="3" class="stage-box"/>
  <text x="140" y="965" text-anchor="middle" class="stage-title">Stage 46-47</text>
  <text x="80" y="980" class="stage-text">• Network scanning</text>
  <text x="80" y="990" class="stage-text">• Credential harvest</text>
  <text x="80" y="1000" class="stage-text">• LSASS dumping</text>
  
  <rect x="230" y="950" width="140" height="60" rx="3" class="stage-box"/>
  <text x="300" y="965" text-anchor="middle" class="stage-title">Stage 48-49</text>
  <text x="240" y="980" class="stage-text">• SMB exploitation</text>
  <text x="240" y="990" class="stage-text">• AD targeting</text>
  <text x="240" y="1000" class="stage-text">• Kerberos tickets</text>
  
  <rect x="390" y="950" width="140" height="60" rx="3" class="stage-box"/>
  <text x="460" y="965" text-anchor="middle" class="stage-title">Stage 50-51</text>
  <text x="400" y="980" class="stage-text">• Distributed C2</text>
  <text x="400" y="990" class="stage-text">• Server scaling</text>
  <text x="400" y="1000" class="stage-text">• 100k+ clients</text>
  
  <rect x="550" y="950" width="140" height="60" rx="3" class="stage-box"/>
  <text x="620" y="965" text-anchor="middle" class="stage-title">Stage 52</text>
  <text x="560" y="980" class="stage-text">• Final integration</text>
  <text x="560" y="990" class="stage-text">• Testing</text>
  <text x="560" y="1000" class="stage-text">• Optimization</text>
  
  <!-- Dependencies arrows -->
  <line x1="250" y1="140" x2="270" y2="140" class="dependency"/>
  <line x1="450" y1="140" x2="470" y2="140" class="dependency"/>
  <line x1="650" y1="140" x2="670" y2="140" class="dependency"/>
  <line x1="850" y1="140" x2="870" y2="140" class="dependency"/>
  
  <!-- Phase transitions -->
  <line x1="800" y1="260" x2="800" y2="280" class="arrow"/>
  <line x1="800" y1="480" x2="800" y2="500" class="arrow"/>
  <line x1="800" y1="680" x2="800" y2="700" class="arrow"/>
  <line x1="800" y1="880" x2="800" y2="900" class="arrow"/>
  
  <!-- Timeline -->
  <rect x="1200" y="60" width="350" height="1020" rx="5" class="stage-box"/>
  <text x="1375" y="85" text-anchor="middle" class="stage-title">DEVELOPMENT TIMELINE</text>
  
  <text x="1210" y="110" class="stage-text">Phase 1 (Stages 1-12): 6-8 weeks</text>
  <text x="1210" y="125" class="small-text">Foundation setup, basic networking, encryption</text>
  
  <text x="1210" y="150" class="stage-text">Phase 2 (Stages 13-25): 8-10 weeks</text>
  <text x="1210" y="165" class="small-text">Core remote access features implementation</text>
  
  <text x="1210" y="190" class="stage-text">Phase 3 (Stages 26-35): 6-8 weeks</text>
  <text x="1210" y="205" class="small-text">Advanced stealth and persistence mechanisms</text>
  
  <text x="1210" y="230" class="stage-text">Phase 4 (Stages 36-45): 8-10 weeks</text>
  <text x="1210" y="245" class="small-text">Advanced monitoring and data collection</text>
  
  <text x="1210" y="270" class="stage-text">Phase 5 (Stages 46-52): 6-8 weeks</text>
  <text x="1210" y="285" class="small-text">Network propagation and massive scaling</text>
  
  <text x="1210" y="320" class="stage-title">TOTAL ESTIMATED TIME:</text>
  <text x="1210" y="340" class="stage-text">34-44 weeks (8.5-11 months)</text>
  
  <text x="1210" y="380" class="stage-title">CRITICAL DEPENDENCIES:</text>
  <text x="1210" y="400" class="small-text">• Stages 1-6 must complete before Phase 2</text>
  <text x="1210" y="415" class="small-text">• Stage 12 (Server UI) enables testing</text>
  <text x="1210" y="430" class="small-text">• Stages 26-35 build on Phase 2 features</text>
  <text x="1210" y="445" class="small-text">• Phase 5 requires all previous phases</text>
  
  <text x="1210" y="480" class="stage-title">PARALLEL DEVELOPMENT:</text>
  <text x="1210" y="500" class="small-text">• Server (WPF) and Client (C++) can be</text>
  <text x="1210" y="515" class="small-text">  developed in parallel after Stage 6</text>
  <text x="1210" y="530" class="small-text">• UI development can start after Stage 4</text>
  <text x="1210" y="545" class="small-text">• Testing can begin after Stage 12</text>
  
  <text x="1210" y="580" class="stage-title">RISK FACTORS:</text>
  <text x="1210" y="600" class="small-text">• Kernel-level persistence (high complexity)</text>
  <text x="1210" y="615" class="small-text">• Anti-analysis evasion (evolving targets)</text>
  <text x="1210" y="630" class="small-text">• Scaling to 100k+ clients (infrastructure)</text>
  <text x="1210" y="645" class="small-text">• Legal and ethical considerations</text>
  
  <!-- Legend -->
  <text x="1210" y="1050" class="small-text">Legend: Solid arrows = Sequential | Dashed = Dependencies</text>
</svg>